<svg width="60" height="60" viewBox="0 0 60 60" fill="none" xmlns="http://www.w3.org/2000/svg">
<path d="M34.0909 21.0001C34.2101 20.9986 34.3284 21.0219 34.4379 21.0683C34.5475 21.1148 34.6461 21.1834 34.7273 21.2698C35.0909 21.6294 35.0909 22.1869 34.7273 22.5465L27.1818 30.009L34.7273 37.4536C35.0909 37.8132 35.0909 38.3706 34.7273 38.7303C34.3636 39.0899 33.8 39.0899 33.4364 38.7303L25.2727 30.6204C24.9091 30.2608 24.9091 29.7033 25.2727 29.3437L33.4545 21.2698C33.6364 21.09 33.8727 21.0001 34.0909 21.0001Z" fill="black"/>
<rect x="59.5" y="59.5" width="59" height="59" rx="29.5" transform="rotate(-180 59.5 59.5)" stroke="#5F5F5F"/>
</svg>
