<svg width="56" height="51" viewBox="0 0 56 51" fill="none" xmlns="http://www.w3.org/2000/svg">
<path opacity="0.4" d="M0 28.278C0 25.2097 2.48731 22.7224 5.55556 22.7224H50C53.0682 22.7224 55.5556 25.2097 55.5556 28.278V39.3891C55.5556 45.5256 50.5809 50.5002 44.4444 50.5002H11.1111C4.97461 50.5002 0 45.5256 0 39.3891V28.278Z" fill="#E94D11"/>
<path d="M5.55566 17.1669C5.55566 14.0986 8.04297 11.6113 11.1112 11.6113H44.4445C47.5128 11.6113 50.0001 14.0986 50.0001 17.1669V22.7224H5.55566V17.1669Z" fill="#E94D11"/>
<path opacity="0.4" d="M11.1111 6.0558C11.1111 2.98755 13.5984 0.500244 16.6666 0.500244H38.8889C41.9571 0.500244 44.4444 2.98755 44.4444 6.0558V11.6114H11.1111V6.0558Z" fill="#E94D11"/>
<path fill-rule="evenodd" clip-rule="evenodd" d="M20.1389 31.0557C20.1389 29.9052 21.0717 28.9724 22.2222 28.9724H33.3334C34.484 28.9724 35.4167 29.9052 35.4167 31.0557C35.4167 32.2063 34.484 33.1391 33.3334 33.1391H22.2222C21.0717 33.1391 20.1389 32.2063 20.1389 31.0557Z" fill="#E94D11"/>
</svg>
