<svg width="20" height="20" viewBox="0 0 20 20" fill="none" xmlns="http://www.w3.org/2000/svg">
<g id="Huge-icon/interface/outline/copy-check" clip-path="url(#clip0_15_155)">
<path id="Vector" d="M6.66675 6.6665V4.99984C6.66675 3.15889 8.15913 1.6665 10.0001 1.6665L15.0001 1.6665C16.841 1.6665 18.3334 3.15889 18.3334 4.99984V9.99984C18.3334 11.8408 16.841 13.3332 15.0001 13.3332H13.3334M6.66675 6.6665H5.00008C3.15913 6.6665 1.66675 8.15889 1.66675 9.99984V14.9998C1.66675 16.8408 3.15913 18.3332 5.00008 18.3332H10.0001C11.841 18.3332 13.3334 16.8408 13.3334 14.9998V13.3332M6.66675 6.6665H10.0001C11.841 6.6665 13.3334 8.15889 13.3334 9.99984V13.3332M5.00008 12.4998L6.46077 13.6684C6.809 13.947 7.31483 13.902 7.60849 13.5664L10.0001 10.8332" stroke="#3F3F3F" stroke-width="1.5" stroke-linecap="round" stroke-linejoin="round"/>
</g>
<defs>
<clipPath id="clip0_15_155">
<rect width="20" height="20" fill="white"/>
</clipPath>
</defs>
</svg>
