<svg width="20" height="20" viewBox="0 0 20 20" fill="none" xmlns="http://www.w3.org/2000/svg">
<g id="Huge-icon/interface/outline/globe" clip-path="url(#clip0_15_111)">
<path id="Vector" d="M18.3334 9.99984C18.3334 14.6022 14.6025 18.3332 10.0001 18.3332M18.3334 9.99984C18.3334 5.39746 14.6025 1.6665 10.0001 1.6665M18.3334 9.99984C18.3334 8.61912 14.6025 7.49984 10.0001 7.49984C5.39771 7.49984 1.66675 8.61912 1.66675 9.99984M18.3334 9.99984C18.3334 11.3805 14.6025 12.4998 10.0001 12.4998C5.39771 12.4998 1.66675 11.3805 1.66675 9.99984M10.0001 18.3332C5.39771 18.3332 1.66675 14.6022 1.66675 9.99984M10.0001 18.3332C11.841 18.3332 13.3334 14.6022 13.3334 9.99984C13.3334 5.39746 11.841 1.6665 10.0001 1.6665M10.0001 18.3332C8.15913 18.3332 6.66675 14.6022 6.66675 9.99984C6.66675 5.39746 8.15913 1.6665 10.0001 1.6665M1.66675 9.99984C1.66675 5.39746 5.39771 1.6665 10.0001 1.6665" stroke="#3F3F3F" stroke-width="1.5"/>
</g>
<defs>
<clipPath id="clip0_15_111">
<rect width="20" height="20" fill="white"/>
</clipPath>
</defs>
</svg>
