<svg width="38" height="51" viewBox="0 0 38 51" fill="none" xmlns="http://www.w3.org/2000/svg">
<path opacity="0.4" d="M0 26.4039C0 21.0807 4.25329 16.7654 9.5 16.7654H28.5C33.7467 16.7654 38 21.0807 38 26.4039V40.8618C38 46.185 33.7467 50.5003 28.5 50.5003H9.5C4.25329 50.5003 0 46.185 0 40.8618V26.4039Z" fill="#E94D11"/>
<path fill-rule="evenodd" clip-rule="evenodd" d="M19 29.4158C19.9838 29.4158 20.7812 30.2249 20.7812 31.223V36.0423C20.7812 37.0404 19.9838 37.8495 19 37.8495C18.0162 37.8495 17.2188 37.0404 17.2188 36.0423V31.223C17.2188 30.2249 18.0162 29.4158 19 29.4158Z" fill="#E94D11"/>
<path fill-rule="evenodd" clip-rule="evenodd" d="M11.281 11.946C11.281 7.62091 14.7368 4.1147 18.9998 4.1147C23.2627 4.1147 26.7185 7.62091 26.7185 11.946V16.7654H30.281V11.946C30.281 5.6247 25.2302 0.500244 18.9998 0.500244C12.7693 0.500244 7.71851 5.6247 7.71851 11.946V16.7654H11.281V11.946Z" fill="#E94D11"/>
</svg>
