<svg width="11" height="11" viewBox="0 0 11 11" fill="none" xmlns="http://www.w3.org/2000/svg">
<path d="M9.18079 7.0229L10.491 8.33308C10.7721 8.61421 10.7721 9.07 10.491 9.35113C8.97106 10.871 6.56484 11.042 4.84526 9.75236L4.74501 9.67718C3.4479 8.70435 2.29565 7.5521 1.32282 6.25499L1.24764 6.15475C-0.0420471 4.43516 0.128958 2.02894 1.64887 0.509028C1.92999 0.2279 2.38579 0.2279 2.66692 0.509028L3.9771 1.81921C4.36763 2.20973 4.36763 2.8429 3.9771 3.23342L3.10557 4.10496C2.9168 4.29373 2.87 4.58211 2.98939 4.82088C3.67955 6.20121 4.79879 7.32045 6.17912 8.01061C6.41789 8.13 6.70627 8.0832 6.89504 7.89443L7.76658 7.0229C8.1571 6.63237 8.79027 6.63237 9.18079 7.0229Z" fill="#5F5F5F"/>
</svg>
