<svg width="20" height="20" viewBox="0 0 20 20" fill="none" xmlns="http://www.w3.org/2000/svg">
<g id="Huge-icon/interface/outline/pin">
<path id="Vector" d="M7.07101 12.9295L2.5 17.5005M13.1907 12.8139L14.5975 11.4071C14.916 11.0886 15.348 10.9097 15.7984 10.9097C17.3113 10.9097 18.069 9.08045 16.9992 8.01063L11.9898 3.00129C10.92 1.93147 9.09078 2.68916 9.09078 4.20212C9.09078 4.65252 8.91186 5.08447 8.59338 5.40295L7.18652 6.8098C6.86804 7.12828 6.43609 7.3072 5.98569 7.3072C4.47273 7.3072 3.71504 9.13643 4.78486 10.2063L9.79421 15.2156C10.864 16.2854 12.6933 15.5277 12.6933 14.0148C12.6933 13.5644 12.8722 13.1324 13.1907 12.8139Z" stroke="#3F3F3F" stroke-width="1.5" stroke-linecap="round"/>
</g>
</svg>
