<svg width="70" height="15" viewBox="0 0 70 15" fill="none" xmlns="http://www.w3.org/2000/svg">
<g id="Logo">
<path d="M6.78529 0.0737305H4.9509L0 14.0737H2.07109L5.87796 2.93373L9.68482 14.0737H11.7559L6.78529 0.0737305Z" fill="#F13651"/>
<path d="M19.2659 0.0737305H17.3724V2.33373H19.2659V0.0737305ZM19.2659 4.29373H17.3724V12.3537L19.2659 10.4537V4.29373ZM20.4889 12.1537L18.5756 14.0737H25.6765V12.1537H20.4889Z" fill="#F13651"/>
<path d="M32.4915 14.0737H34.3653V4.69373H32.4915V14.0737ZM28.4282 0.0737305V1.97373H38.4286V0.0737305H28.4282Z" fill="#F13651"/>
<path d="M44.255 12.1537V14.0737H53.4269V12.1537H44.255ZM52.6971 6.13373H44.255V7.99373H52.6971V6.13373ZM53.3086 0.0737305H44.255V1.97373H53.3086V0.0737305Z" fill="#F13651"/>
<path d="M67.6133 14.0737H70L64.911 6.81373L69.5858 0.0737305H67.1794L63.0766 6.13373H61.4198V0.0737305H59.5262V14.0737H61.4198V7.97373H63.3922L67.6133 14.0737Z" fill="#F13651"/>
</g>
</svg>
