<svg width="105" height="58" viewBox="0 0 105 58" fill="none" xmlns="http://www.w3.org/2000/svg">
<g id="Logo">
<path id="path57" fill-rule="evenodd" clip-rule="evenodd" d="M0.28125 53.2993H1.93985V57.9917H3.61558V53.2993H5.3085V51.6419H0.28125V53.2993ZM15.1303 57.9917L13.7777 55.6893C14.2371 55.2651 14.5349 54.6562 14.5349 53.9784C14.5349 52.6916 13.4801 51.6419 12.1872 51.6419H9.49929V57.9917H11.1751V56.3065H12.2127L13.1995 57.9917H15.1303ZM11.1751 53.0481H12.2127C12.7231 53.0481 13.1314 53.4541 13.1314 53.9613C13.1314 54.4702 12.7231 54.8674 12.2127 54.8674H11.1751V53.0481ZM20.4102 58L20.7927 57.1686H23.4042L23.7955 58H25.4712L22.4684 51.6419H21.7114L18.7345 58H20.4102ZM22.1026 54.3631L22.7491 55.7623H21.4479L22.1026 54.3631ZM34.7319 58V51.6502H33.0561V54.6479L30.0366 51.6502H29.356V58H31.0317V54.9944L34.0429 58H34.7319ZM42.8784 53.5865C42.8784 52.5044 42.0024 51.6419 40.9133 51.6419C39.8247 51.6419 38.9569 52.5127 38.9569 53.5952C38.9569 54.6856 39.8247 55.5481 40.9133 55.5481C41.1773 55.5481 41.3982 55.7681 41.3982 56.03C41.3982 56.2924 41.1773 56.5036 40.9133 56.5036C40.6499 56.5036 40.4369 56.2924 40.4369 56.0218H38.9486C38.9486 57.1379 39.8247 57.9917 40.9133 57.9917C42.0024 57.9917 42.8784 57.1292 42.8784 56.0471C42.8784 55.5822 42.7251 55.1592 42.4529 54.8209C42.0959 54.3643 41.5343 54.0684 40.9133 54.0684C40.6499 54.0684 40.4369 53.8529 40.4369 53.5865C40.4369 53.3258 40.6499 53.1046 40.9133 53.1046C41.1773 53.1046 41.3982 53.3258 41.3982 53.5906L42.8784 53.5865ZM47.103 58H51.0755V56.326H48.7788V51.6419H47.103V58ZM56.5596 58L56.9421 57.1686H59.5536L59.9449 58H61.6206L58.6178 51.6419H57.8608L54.8838 58H56.5596ZM58.252 54.3631L58.8984 55.7623H57.5972L58.252 54.3631ZM64.9437 53.2993H66.6023V57.9917H68.2781V53.2993H69.9709V51.6419H64.9437V53.2993ZM74.1534 57.9833H75.8292V51.6419H74.1534V57.9833ZM80.0199 54.8296C80.0199 56.5883 81.4402 58 83.201 58C84.962 58 86.391 56.5883 86.391 54.8296C86.391 53.0709 84.962 51.6419 83.201 51.6419C81.4402 51.6419 80.0199 53.0709 80.0199 54.8296ZM84.7235 54.8209C84.7235 55.6539 84.0433 56.343 83.201 56.343C82.3675 56.343 81.687 55.6539 81.687 54.8209C81.687 53.9783 82.3675 53.2993 83.201 53.2993C84.0433 53.2993 84.7235 53.9783 84.7235 54.8209ZM95.966 58V51.6502H94.2903V54.6479L91.2708 51.6502H90.5901V58H92.2659V54.9944L95.277 58H95.966ZM104.113 53.5865C104.113 52.5044 103.236 51.6419 102.147 51.6419C101.059 51.6419 100.191 52.5127 100.191 53.5952C100.191 54.6856 101.059 55.5481 102.147 55.5481C102.411 55.5481 102.632 55.7681 102.632 56.03C102.632 56.2924 102.411 56.5036 102.147 56.5036C101.884 56.5036 101.671 56.2924 101.671 56.0218H100.183C100.183 57.1379 101.059 57.9917 102.147 57.9917C103.236 57.9917 104.113 57.1292 104.113 56.0471C104.113 55.5822 103.959 55.1592 103.687 54.8209C103.33 54.3643 102.768 54.0684 102.147 54.0684C101.884 54.0684 101.671 53.8529 101.671 53.5865C101.671 53.3258 101.884 53.1046 102.147 53.1046C102.411 53.1046 102.632 53.3258 102.632 53.5906L104.113 53.5865Z" fill="#E94D11"/>
<g id="Layer1011">
<path id="path59" fill-rule="evenodd" clip-rule="evenodd" d="M85.054 0H105V43.8886H86.7651V32.3174H103.815L85.054 0Z" fill="black"/>
<path id="path61" fill-rule="evenodd" clip-rule="evenodd" d="M34.803 0H71.9085L53.1468 32.3176L70.1972 32.3174V43.8886H33.0918L51.8533 11.5709H34.803V0Z" fill="#E94D11"/>
<path id="path63" fill-rule="evenodd" clip-rule="evenodd" d="M0 0H18.2348V11.5709H1.18466L19.9462 43.8886H0V0Z" fill="black"/>
</g>
</g>
</svg>
